<?xml version="1.0" encoding="UTF-8"?>
<!DOCTYPE svg PUBLIC "-//W3C//DTD SVG 1.1//EN" "http://www.w3.org/Graphics/SVG/1.1/DTD/svg11.dtd">
<svg version="1.2" width="1000mm" height="1000mm" viewBox="0 0 100000 100000" preserveAspectRatio="xMidYMid" fill-rule="evenodd" stroke-width="28.222" stroke-linejoin="round" xmlns="http://www.w3.org/2000/svg" xmlns:ooo="http://xml.openoffice.org/svg/export" xmlns:xlink="http://www.w3.org/1999/xlink" xmlns:presentation="http://sun.com/xmlns/staroffice/presentation" xmlns:smil="http://www.w3.org/2001/SMIL20/" xmlns:anim="urn:oasis:names:tc:opendocument:xmlns:animation:1.0" xml:space="preserve">
 <defs class="ClipPathGroup">
  <clipPath id="presentation_clip_path" clipPathUnits="userSpaceOnUse">
   <rect x="0" y="0" width="100000" height="100000"/>
  </clipPath>
  <clipPath id="presentation_clip_path_shrink" clipPathUnits="userSpaceOnUse">
   <rect x="100" y="100" width="99800" height="99800"/>
  </clipPath>
 </defs>
 <defs class="TextShapeIndex">
  <g ooo:slide="id1" ooo:id-list="id3"/>
 </defs>
 <defs class="EmbeddedBulletChars">
  <g id="bullet-char-template-57356" transform="scale(0.00048828125,-0.00048828125)">
   <path d="M 580,1141 L 1163,571 580,0 -4,571 580,1141 Z"/>
  </g>
  <g id="bullet-char-template-57354" transform="scale(0.00048828125,-0.00048828125)">
   <path d="M 8,1128 L 1137,1128 1137,0 8,0 8,1128 Z"/>
  </g>
  <g id="bullet-char-template-10146" transform="scale(0.00048828125,-0.00048828125)">
   <path d="M 174,0 L 602,739 174,1481 1456,739 174,0 Z M 1358,739 L 309,1346 659,739 1358,739 Z"/>
  </g>
  <g id="bullet-char-template-10132" transform="scale(0.00048828125,-0.00048828125)">
   <path d="M 2015,739 L 1276,0 717,0 1260,543 174,543 174,936 1260,936 717,1481 1274,1481 2015,739 Z"/>
  </g>
  <g id="bullet-char-template-10007" transform="scale(0.00048828125,-0.00048828125)">
   <path d="M 0,-2 C -7,14 -16,27 -25,37 L 356,567 C 262,823 215,952 215,954 215,979 228,992 255,992 264,992 276,990 289,987 310,991 331,999 354,1012 L 381,999 492,748 772,1049 836,1024 860,1049 C 881,1039 901,1025 922,1006 886,937 835,863 770,784 769,783 710,716 594,584 L 774,223 C 774,196 753,168 711,139 L 727,119 C 717,90 699,76 672,76 641,76 570,178 457,381 L 164,-76 C 142,-110 111,-127 72,-127 30,-127 9,-110 8,-76 1,-67 -2,-52 -2,-32 -2,-23 -1,-13 0,-2 Z"/>
  </g>
  <g id="bullet-char-template-10004" transform="scale(0.00048828125,-0.00048828125)">
   <path d="M 285,-33 C 182,-33 111,30 74,156 52,228 41,333 41,471 41,549 55,616 82,672 116,743 169,778 240,778 293,778 328,747 346,684 L 369,508 C 377,444 397,411 428,410 L 1163,1116 C 1174,1127 1196,1133 1229,1133 1271,1133 1292,1118 1292,1087 L 1292,965 C 1292,929 1282,901 1262,881 L 442,47 C 390,-6 338,-33 285,-33 Z"/>
  </g>
  <g id="bullet-char-template-9679" transform="scale(0.00048828125,-0.00048828125)">
   <path d="M 813,0 C 632,0 489,54 383,161 276,268 223,411 223,592 223,773 276,916 383,1023 489,1130 632,1184 813,1184 992,1184 1136,1130 1245,1023 1353,916 1407,772 1407,592 1407,412 1353,268 1245,161 1136,54 992,0 813,0 Z"/>
  </g>
  <g id="bullet-char-template-8226" transform="scale(0.00048828125,-0.00048828125)">
   <path d="M 346,457 C 273,457 209,483 155,535 101,586 74,649 74,723 74,796 101,859 155,911 209,963 273,989 346,989 419,989 480,963 531,910 582,859 608,796 608,723 608,648 583,586 532,535 482,483 420,457 346,457 Z"/>
  </g>
  <g id="bullet-char-template-8211" transform="scale(0.00048828125,-0.00048828125)">
   <path d="M -4,459 L 1135,459 1135,606 -4,606 -4,459 Z"/>
  </g>
  <g id="bullet-char-template-61548" transform="scale(0.00048828125,-0.00048828125)">
   <path d="M 173,740 C 173,903 231,1043 346,1159 462,1274 601,1332 765,1332 928,1332 1067,1274 1183,1159 1299,1043 1357,903 1357,740 1357,577 1299,437 1183,322 1067,206 928,148 765,148 601,148 462,206 346,322 231,437 173,577 173,740 Z"/>
  </g>
 </defs>
 <g>
  <g id="id2" class="Master_Slide">
   <g id="bg-id2" class="Background"/>
   <g id="bo-id2" class="BackgroundObjects"/>
  </g>
 </g>
 <g class="SlideGroup">
  <g>
   <g id="container-id1">
    <g id="id1" class="Slide" clip-path="url(#presentation_clip_path)">
     <g class="Page">
      <g class="com.sun.star.drawing.PolyPolygonShape">
       <g id="id3">
        <rect class="BoundingBox" stroke="none" fill="none" x="12114" y="14288" width="75774" height="76214"/>
        <path fill="rgb(1,1,1)" stroke="none" d="M 53085,14289 L 60574,16051 67622,18694 74670,23100 78635,27064 84362,35875 86564,41161 87886,46888 87886,57461 84802,68033 82600,72879 81278,75081 77313,80368 73348,83892 72908,83892 72027,84333 71146,85214 65859,87857 56609,90500 47358,90500 44715,90060 44274,89619 44715,89178 47799,89178 48239,89619 53085,89619 61455,88297 66300,86535 68943,85214 69824,84333 72467,82570 72908,82570 78194,77284 79516,75522 79516,75081 80397,73760 81278,72879 82159,71557 84802,66271 85683,63629 87005,57021 87005,49091 83921,38518 81719,34113 78635,29708 72467,23540 70705,22218 70265,22218 68062,20897 67181,20016 62776,17813 58812,16492 53966,15610 46477,15610 40750,16932 34142,19135 28856,21778 27094,23100 21807,28386 16961,35434 14318,41602 14318,42042 13878,42483 13437,42042 13437,41602 16521,34553 17402,33672 17842,32791 17842,32351 18723,31029 20045,29708 21367,27945 21367,27505 26653,22218 28856,20456 32380,19135 34142,18254 35023,17373 36785,16492 39869,15610 45155,14729 53085,14289 Z M 47799,38518 L 48239,38518 49120,39399 49120,41161 48680,41602 47799,41602 47358,41161 46918,41161 45596,42483 45596,43364 46036,45567 46477,46007 47799,46888 51763,46888 51763,46448 50442,46448 50001,46007 50001,45567 50442,45126 52204,45126 52644,44686 52644,44245 50882,44245 50442,43805 50442,42924 52204,41161 55288,39399 55728,39840 55728,40721 57050,40721 57931,40280 58371,39840 58812,39840 59252,40280 58812,41602 58371,42483 60574,42483 61455,42042 61896,41602 63657,41602 66300,43364 67181,44245 67181,45126 65859,46888 64538,48210 64097,48210 63657,47769 61455,47769 61455,48210 62335,48210 63657,49532 64097,50413 64097,50853 63657,51294 63216,51294 62335,52175 62335,56139 61896,56580 61896,57021 63216,57461 63657,57461 65419,59223 64978,59664 64538,59664 63216,58342 58812,58342 57931,59664 57931,60545 58371,60985 58812,60985 58812,60545 59252,60104 59693,60545 59693,63188 60133,63629 60133,64509 59252,65390 58812,65390 58371,64949 57931,64069 57931,63188 57050,62307 53085,66271 50882,66271 48239,64509 47799,64069 47799,60985 46918,57902 46036,56139 44715,54818 41191,53937 40750,53496 40750,53056 39869,53056 39428,53496 38988,54818 38547,57902 38547,60985 36785,62747 36345,62747 35904,62307 35464,61426 35464,60985 34583,60104 34142,60104 32820,58783 32820,57902 34142,56580 35904,58342 37226,58342 37226,53496 37666,53056 38107,52175 38107,51734 38988,50853 39869,50413 42512,50413 42953,49972 43393,49972 45155,51734 46918,53056 47358,52615 47358,52175 46918,51734 46918,50413 48680,48650 47799,48210 46036,47769 43834,46888 42953,46007 42512,45126 42512,43805 46918,38959 47799,38518 Z M 13437,42483 L 13878,42924 13878,43805 13437,44245 12996,43805 12996,42924 13437,42483 Z M 60574,43364 L 61896,43364 62335,44245 62335,45126 61896,45567 60574,45567 57931,46007 57490,46448 56609,46448 57050,46007 57490,46007 58812,44686 58371,44245 57931,44686 57931,44245 58812,43805 60574,43364 Z M 12996,44245 L 13437,44686 13437,45567 12996,46007 12556,45567 12556,44686 12996,44245 Z M 12556,46448 L 12996,46888 12996,49532 12556,49972 12115,49532 12115,46888 12556,46448 Z M 49561,49091 L 50001,49091 50001,49972 49561,50413 48680,50413 48680,49972 49561,49091 Z M 60133,50413 L 60574,50413 60133,50853 60133,51294 60574,51734 61015,51734 61015,53496 60574,54818 59693,54818 58812,55699 58812,56139 59693,57021 59252,57461 58371,57021 57931,56580 57931,56139 58371,55699 57931,54818 57490,54377 57490,52615 58371,52615 59252,51734 59252,51294 60133,50413 Z M 56169,52615 L 56609,52615 56609,53937 56169,53496 56169,52615 Z M 12556,54818 L 12996,55258 12996,58342 14318,63629 16080,68473 16961,70236 17842,71117 19164,73319 19164,73760 21367,76844 25772,81249 28856,83452 36345,86976 39428,87857 39869,88297 39428,88738 38547,88738 25772,83011 22688,79927 18723,75081 18723,74641 18283,73760 17402,72879 14318,65830 12115,58342 12115,55258 12556,54818 Z M 55728,57461 L 57050,57461 57490,57902 55728,58783 55288,58783 55288,57902 55728,57461 Z M 52204,57902 L 52644,57902 52644,59664 53085,60545 53525,60985 54407,60985 55288,60545 55728,60104 56609,60104 56609,60985 56169,61426 55728,62307 55728,62747 54847,63629 53525,64509 53085,64509 52644,64069 52644,63629 53085,63188 53085,61866 52644,61426 52204,60545 52204,57902 Z M 40310,88297 L 41631,88297 42072,88738 41631,89178 40310,89178 39869,88738 40310,88297 Z M 42512,88738 L 43834,88738 44274,89178 43834,89619 42512,89619 42072,89178 42512,88738 Z"/>
        <path fill="none" stroke="rgb(1,1,1)" d="M 53085,14289 L 60574,16051 67622,18694 74670,23100 78635,27064 84362,35875 86564,41161 87886,46888 87886,57461 84802,68033 82600,72879 81278,75081 77313,80368 73348,83892 72908,83892 72027,84333 71146,85214 65859,87857 56609,90500 47358,90500 44715,90060 44274,89619 44715,89178 47799,89178 48239,89619 53085,89619 61455,88297 66300,86535 68943,85214 69824,84333 72467,82570 72908,82570 78194,77284 79516,75522 79516,75081 80397,73760 81278,72879 82159,71557 84802,66271 85683,63629 87005,57021 87005,49091 83921,38518 81719,34113 78635,29708 72467,23540 70705,22218 70265,22218 68062,20897 67181,20016 62776,17813 58812,16492 53966,15610 46477,15610 40750,16932 34142,19135 28856,21778 27094,23100 21807,28386 16961,35434 14318,41602 14318,42042 13878,42483 13437,42042 13437,41602 16521,34553 17402,33672 17842,32791 17842,32351 18723,31029 20045,29708 21367,27945 21367,27505 26653,22218 28856,20456 32380,19135 34142,18254 35023,17373 36785,16492 39869,15610 45155,14729 53085,14289 Z"/>
        <path fill="none" stroke="rgb(1,1,1)" d="M 47799,38518 L 48239,38518 49120,39399 49120,41161 48680,41602 47799,41602 47358,41161 46918,41161 45596,42483 45596,43364 46036,45567 46477,46007 47799,46888 51763,46888 51763,46448 50442,46448 50001,46007 50001,45567 50442,45126 52204,45126 52644,44686 52644,44245 50882,44245 50442,43805 50442,42924 52204,41161 55288,39399 55728,39840 55728,40721 57050,40721 57931,40280 58371,39840 58812,39840 59252,40280 58812,41602 58371,42483 60574,42483 61455,42042 61896,41602 63657,41602 66300,43364 67181,44245 67181,45126 65859,46888 64538,48210 64097,48210 63657,47769 61455,47769 61455,48210 62335,48210 63657,49532 64097,50413 64097,50853 63657,51294 63216,51294 62335,52175 62335,56139 61896,56580 61896,57021 63216,57461 63657,57461 65419,59223 64978,59664 64538,59664 63216,58342 58812,58342 57931,59664 57931,60545 58371,60985 58812,60985 58812,60545 59252,60104 59693,60545 59693,63188 60133,63629 60133,64509 59252,65390 58812,65390 58371,64949 57931,64069 57931,63188 57050,62307 53085,66271 50882,66271 48239,64509 47799,64069 47799,60985 46918,57902 46036,56139 44715,54818 41191,53937 40750,53496 40750,53056 39869,53056 39428,53496 38988,54818 38547,57902 38547,60985 36785,62747 36345,62747 35904,62307 35464,61426 35464,60985 34583,60104 34142,60104 32820,58783 32820,57902 34142,56580 35904,58342 37226,58342 37226,53496 37666,53056 38107,52175 38107,51734 38988,50853 39869,50413 42512,50413 42953,49972 43393,49972 45155,51734 46918,53056 47358,52615 47358,52175 46918,51734 46918,50413 48680,48650 47799,48210 46036,47769 43834,46888 42953,46007 42512,45126 42512,43805 46918,38959 47799,38518 Z"/>
        <path fill="none" stroke="rgb(1,1,1)" d="M 13437,42483 L 13878,42924 13878,43805 13437,44245 12996,43805 12996,42924 13437,42483 Z"/>
        <path fill="none" stroke="rgb(1,1,1)" d="M 60574,43364 L 61896,43364 62335,44245 62335,45126 61896,45567 60574,45567 57931,46007 57490,46448 56609,46448 57050,46007 57490,46007 58812,44686 58371,44245 57931,44686 57931,44245 58812,43805 60574,43364 Z"/>
        <path fill="none" stroke="rgb(1,1,1)" d="M 12996,44245 L 13437,44686 13437,45567 12996,46007 12556,45567 12556,44686 12996,44245 Z"/>
        <path fill="none" stroke="rgb(1,1,1)" d="M 12556,46448 L 12996,46888 12996,49532 12556,49972 12115,49532 12115,46888 12556,46448 Z"/>
        <path fill="none" stroke="rgb(1,1,1)" d="M 49561,49091 L 50001,49091 50001,49972 49561,50413 48680,50413 48680,49972 49561,49091 Z"/>
        <path fill="none" stroke="rgb(1,1,1)" d="M 60133,50413 L 60574,50413 60133,50853 60133,51294 60574,51734 61015,51734 61015,53496 60574,54818 59693,54818 58812,55699 58812,56139 59693,57021 59252,57461 58371,57021 57931,56580 57931,56139 58371,55699 57931,54818 57490,54377 57490,52615 58371,52615 59252,51734 59252,51294 60133,50413 Z"/>
        <path fill="none" stroke="rgb(1,1,1)" d="M 56169,52615 L 56609,52615 56609,53937 56169,53496 56169,52615 Z"/>
        <path fill="none" stroke="rgb(1,1,1)" d="M 12556,54818 L 12996,55258 12996,58342 14318,63629 16080,68473 16961,70236 17842,71117 19164,73319 19164,73760 21367,76844 25772,81249 28856,83452 36345,86976 39428,87857 39869,88297 39428,88738 38547,88738 25772,83011 22688,79927 18723,75081 18723,74641 18283,73760 17402,72879 14318,65830 12115,58342 12115,55258 12556,54818 Z"/>
        <path fill="none" stroke="rgb(1,1,1)" d="M 55728,57461 L 57050,57461 57490,57902 55728,58783 55288,58783 55288,57902 55728,57461 Z"/>
        <path fill="none" stroke="rgb(1,1,1)" d="M 52204,57902 L 52644,57902 52644,59664 53085,60545 53525,60985 54407,60985 55288,60545 55728,60104 56609,60104 56609,60985 56169,61426 55728,62307 55728,62747 54847,63629 53525,64509 53085,64509 52644,64069 52644,63629 53085,63188 53085,61866 52644,61426 52204,60545 52204,57902 Z"/>
        <path fill="none" stroke="rgb(1,1,1)" d="M 40310,88297 L 41631,88297 42072,88738 41631,89178 40310,89178 39869,88738 40310,88297 Z"/>
        <path fill="none" stroke="rgb(1,1,1)" d="M 42512,88738 L 43834,88738 44274,89178 43834,89619 42512,89619 42072,89178 42512,88738 Z"/>
       </g>
      </g>
     </g>
    </g>
   </g>
  </g>
 </g>
</svg>